<?xml version="1.0" encoding="utf-8"?>
<!-- Generator: Adobe Illustrator 25.2.2, SVG Export Plug-In . SVG Version: 6.00 Build 0)  -->
<svg version="1.2" baseProfile="tiny" id="Layer_1" xmlns="http://www.w3.org/2000/svg" xmlns:xlink="http://www.w3.org/1999/xlink"
	 x="0px" y="0px" viewBox="0 0 512 512" overflow="visible" xml:space="preserve">
<circle fill="#05386B" cx="256" cy="256" r="139.4"/>
<path fill="#379683" d="M256,116.6c77,0,139.4,62.4,139.4,139.4c0,77-62.4,139.4-139.4,139.4c-77,0-139.4-62.4-139.4-139.4
	C116.6,179,179,116.6,256,116.6 M256,0C114.8,0,0,114.8,0,256s114.8,256,256,256s256-114.8,256-256S397.2,0,256,0L256,0z"/>
<g>
	<path fill="#8EE4AF" d="M141.6,83.3l-7.6-9.4l-24,19.6l13.6,16.7l20.9-17l5.7,7l-20.9,17l15,18.4l24-19.6l-8.3-10.2l6.9-5.6
		l14,17.2l-46.7,38l-5.7-7l7.2-5.9l-34.3-42.1l-7.2,5.9l-5.7-7l46.7-38l13.3,16.4L141.6,83.3z"/>
	<path fill="#8EE4AF" d="M244.5,46.5c0.8,4.6,0.2,8.6-1.9,12.2c-2,3.6-5.3,6.3-9.7,8.3L250,90.6l8.7-1.5l1.6,8.9l-16,2.8l-21.6-30.5
		l-10,1.7l4.2,24.3l9.1-1.6l1.6,8.9l-29.5,5.2l-1.6-8.9l9.7-1.7l-9.3-53.5l-9.7,1.7l-1.6-8.9l29.6-5.2c9.2-1.6,16.1-1.3,20.7,1
		C240.5,35.7,243.4,40.1,244.5,46.5z M233.4,48.3c-0.6-3.3-2-5.6-4.4-6.7c-2.4-1.2-5.8-1.4-10.3-0.6l-11,1.9l3.5,20.3l10.4-1.8
		c4.6-0.8,7.9-2.2,9.9-4.2C233.4,55.1,234,52.2,233.4,48.3z"/>
	<path fill="#8EE4AF" d="M313.1,45.3L300.3,98l7.7,1.9l-2.1,8.8l-25.9-6.3l2.1-8.8l7.6,1.9l12.9-52.8l-7.6-1.9L297,32l25.9,6.3
		l-2.1,8.8L313.1,45.3z"/>
	<path fill="#8EE4AF" d="M413,101l5-6.2l7.2,5.8l-14.6,18l-7.3-5.9c1.1-5.1,0.8-10-0.7-14.6c-1.6-4.6-4.3-8.5-8.1-11.6
		c-3.7-3-7.8-4.7-12.3-5.1c-4.5-0.4-8.9,0.4-13.2,2.3c-4.3,2-7.9,4.8-11,8.6c-3.1,3.9-5.2,8.2-6.2,12.8c-1,4.7-0.7,9.2,0.7,13.6
		c1.4,4.4,3.9,8.1,7.6,11c4.5,3.6,9.6,5.5,15.3,5.6c5.7,0.1,11.4-1.8,17.1-5.6l4.1,9.6c-7,4.7-14.4,6.8-22.1,6.2
		c-7.7-0.5-14.9-3.5-21.5-8.9c-5.5-4.4-9.2-9.6-11.4-15.7c-2.1-6-2.6-12.2-1.4-18.5c1.2-6.3,3.9-12.1,8.2-17.3
		c4.6-5.7,9.9-9.8,15.9-12.3s12.1-3.3,18.3-2.3c6.2,1,12,3.7,17.5,8.1c3.7,3,6.5,6.3,8.6,10C410.9,92.5,412.3,96.5,413,101z"/>
</g>
<g>
	<path fill="#EDF5E1" d="M94.7,226.5l0.3,16.4l-51.2,34.6l0,0.2l51.7-0.8l0.2,12.4L26,290.4l-0.3-15.7l52.9-35.3l0-0.2L25.2,240
		L25,227.6L94.7,226.5z"/>
	<path fill="#EDF5E1" d="M69,325.4c4.8-2.9,9.6-4.7,14.4-5.5s9.5-0.6,13.9,0.5c4.4,1.1,8.5,3.2,12.4,6.1s7.1,6.7,9.9,11.3
		c2.9,4.6,4.8,9.3,5.7,14c0.9,4.7,0.8,9.3-0.2,13.8c-1.1,4.5-3,8.7-6,12.6c-2.9,3.9-6.8,7.3-11.5,10.2c-4.7,2.8-9.4,4.6-14.1,5.3
		c-4.8,0.7-9.4,0.5-13.8-0.6c-4.4-1.1-8.6-3.2-12.5-6.1c-3.9-2.9-7.3-6.7-10.1-11.4c-2.8-4.6-4.6-9.3-5.4-14s-0.7-9.3,0.3-13.8
		c1-4.4,3-8.6,5.9-12.5C60.6,331.6,64.3,328.3,69,325.4z M76.4,336.2c-3.2,1.9-5.9,4.2-8,6.8c-2.1,2.6-3.6,5.4-4.5,8.4
		c-0.9,3-1.1,6.1-0.7,9.2c0.4,3.2,1.5,6.3,3.4,9.4c1.9,3.1,4.1,5.6,6.8,7.4c2.6,1.9,5.5,3.1,8.5,3.7c3,0.6,6.2,0.6,9.5,0
		c3.3-0.6,6.5-1.9,9.7-3.9c3-1.8,5.5-4,7.5-6.5c2-2.5,3.4-5.3,4.3-8.3c0.9-3,1.1-6,0.6-9.2c-0.4-3.2-1.6-6.3-3.4-9.4
		c-1.9-3.1-4.1-5.6-6.7-7.4c-2.6-1.8-5.4-3.1-8.4-3.7c-3-0.6-6.1-0.7-9.3-0.1C82.4,333.2,79.4,334.4,76.4,336.2z"/>
	<path fill="#EDF5E1" d="M153.2,381.8l20.7,12.5c2.9,1.7,5.5,3.7,7.8,5.8c2.3,2.1,4.2,4.5,5.5,7c1.3,2.5,1.9,5.3,1.8,8.2
		s-1.1,6.1-3.2,9.5c-2.6,4.3-6,7.2-10.1,8.7c-4.2,1.5-8.6,1.2-13.4-0.9l-0.1,35.9l-12.8-7.7l1.4-33.6l-7.7-4.7l-15.3,25.3l-10.6-6.4
		L153.2,381.8z M156.8,418.5c1.5,0.9,3.1,1.8,4.7,2.5c1.6,0.8,3.2,1.3,4.8,1.5c1.6,0.2,3.1,0,4.5-0.6c1.4-0.6,2.8-1.9,4-3.9
		c1-1.7,1.5-3.4,1.4-4.9c-0.1-1.5-0.6-2.9-1.4-4.1c-0.9-1.2-2-2.4-3.3-3.4c-1.3-1-2.7-2-4-2.8l-9.2-5.5l-9.8,16.2L156.8,418.5z"/>
	<path fill="#EDF5E1" d="M213.8,415.7l18.9,0.5l17.2,49.3l20.2-48.2l18.7,0.5l-2,69.6l-11.8-0.3l1.6-57.8l-0.2,0l-22.8,57.2
		l-8.7-0.2l-19.5-58.4l-0.2,0l-1.6,57.8l-11.8-0.3L213.8,415.7z"/>
	<path fill="#EDF5E1" d="M329.3,399.3l9.4-5.2l60,46.4l-12.4,6.9l-13.4-10.8l-26.4,14.7l2.2,17l-12.1,6.7L329.3,399.3z M363.9,429.4
		l-23.1-19.6l4.2,30.1L363.9,429.4z"/>
	<path fill="#EDF5E1" d="M375.2,368.4l8.8-13.9l61.8-0.8l0.1-0.2l-43.7-27.7l6.6-10.5l58.8,37.3l-8.4,13.3l-63.6,0.5l-0.1,0.2
		l45.1,28.6l-6.6,10.5L375.2,368.4z"/>
	<path fill="#EDF5E1" d="M415.4,294.3l0.7-16.4l53.1-31.5l0-0.2l-51.7-2.2l0.5-12.4l69.6,2.9l-0.7,15.7l-54.8,32.2l0,0.2l53.4,2.2
		l-0.5,12.4L415.4,294.3z"/>
</g>
<circle fill="#5CDB95" cx="74.5" cy="171.5" r="17.5"/>
<circle fill="#5CDB95" cx="435.5" cy="178.5" r="17.5"/>
</svg>
