<?xml version="1.0" encoding="utf-8"?>
<!-- Generator: Adobe Illustrator 25.3.1, SVG Export Plug-In . SVG Version: 6.00 Build 0)  -->
<svg version="1.1" id="Layer_1" xmlns="http://www.w3.org/2000/svg" xmlns:xlink="http://www.w3.org/1999/xlink" x="0px" y="0px"
	 viewBox="0 0 144 144" style="enable-background:new 0 0 144 144;" xml:space="preserve">
<style type="text/css">
	.st0{fill:#1C3A6A;}
	.st1{fill:#379683;}
	.st2{fill:#EEF5E2;}
	.st3{fill:#98D1A9;}
</style>
<g>
	<circle class="st0" cx="72" cy="72" r="55"/>
	<path class="st1" d="M72,34c21,0,38,17,38,38s-17,38-38,38S34,93,34,72S51,34,72,34 M72,0C32.2,0,0,32.2,0,72s32.2,72,72,72
		s72-32.2,72-72S111.8,0,72,0L72,0z"/>
</g>
<g>
	<path class="st2" d="M7.4,81.2l0.2-5.4l11.6-10.2L7.8,65.2L8,59.1l20.3,0.6l-0.2,5.4L16.6,75.3l11.2,0.3l-0.2,6.1L7.4,81.2z"/>
	<path class="st2" d="M30.3,108.4c-1.7,0.9-3.4,1.4-5.2,1.4c-1.8,0-3.6-0.5-5.2-1.6c-1.7-1.1-3.1-2.7-4.3-4.8
		c-1.2-2.2-1.8-4.3-1.8-6.3c0-2,0.5-3.7,1.5-5.3c1-1.5,2.3-2.7,3.8-3.6c1.6-0.9,3.3-1.4,5.1-1.4c1.8,0,3.5,0.5,5.2,1.5
		c1.7,1,3.2,2.7,4.4,4.9c0.9,1.6,1.5,3.2,1.7,4.8s0.2,3-0.2,4.3c-0.4,1.3-1,2.5-1.9,3.5C32.5,106.9,31.5,107.8,30.3,108.4z
		 M27.2,103c0.7-0.4,1.2-0.8,1.7-1.3c0.4-0.5,0.8-1.1,0.9-1.7c0.2-0.6,0.2-1.3,0.1-2c-0.1-0.7-0.4-1.4-0.8-2.2
		c-0.8-1.4-1.8-2.3-3.1-2.7c-1.3-0.4-2.6-0.1-4,0.6s-2.2,1.8-2.6,3.1c-0.4,1.3-0.2,2.6,0.6,4.1c0.5,1,1.2,1.7,2,2.2s1.6,0.7,2.5,0.7
		C25.5,103.7,26.4,103.5,27.2,103z"/>
	<path class="st2" d="M46.5,132.1l-5.5-3.6l0.6-3.9c0.2-1.4,0.3-2.5,0.2-3.3s-0.2-1.3-0.5-1.7c-0.3-0.4-0.7-0.8-1.3-1.1l-0.6-0.4
		l-4.3,6.7l-5.2-3.3l11-17.1l8.8,5.6c1.4,0.9,2.4,1.9,2.9,3.1c0.5,1.2,0.7,2.3,0.6,3.4c-0.1,1.1-0.4,2-0.9,2.7
		c-0.6,0.9-1.2,1.5-1.9,1.9c-0.7,0.4-1.3,0.6-1.9,0.6s-1.1,0-1.7,0c0.3,0.7,0.6,1.3,0.6,2c0.1,0.7,0,1.9-0.3,3.6L46.5,132.1z
		 M47,115.9c0.5-0.8,0.6-1.5,0.3-2.2s-1.1-1.3-2.2-2.1L44,111l-2.6,4.1l1.1,0.7c1.3,0.8,2.2,1.2,2.8,1.2
		C45.9,117.1,46.5,116.7,47,115.9z"/>
	<path class="st2" d="M80.7,136.8l-6.1-0.3l0.6-11.8l-5.8,6.5l-0.5,0l-5.2-7.1L63.1,136l-5.9-0.3l1-20.3l5.5,0.3l5.9,7.9l6.6-7.3
		l5.5,0.3L80.7,136.8z"/>
	<path class="st2" d="M113.6,122.6l-5.5,3l-3.4-2.8l-7.7,4.2l0.5,4.4l-5.5,3l-1.8-22.1l5.9-3.2L113.6,122.6z M101.7,120.4l-6.2-5.1
		l0.9,7.9L101.7,120.4z"/>
	<path class="st2" d="M132.8,95.8l-2.8,4.7l-15.1,3.2l9.7,5.9l-3.1,5.2L104,104.2l2.8-4.7l15.1-3.2l-9.6-5.8l3.2-5.2L132.8,95.8z"/>
	<path class="st2" d="M136.2,60.1l0.1,5.4l-11.1,10.7l11.3-0.2l0.1,6.1l-20.3,0.3l-0.1-5.4l11.1-10.7L116,66.6l-0.1-6.1L136.2,60.1z
		"/>
</g>
<g>
	<path class="st3" d="M35.6,25.5l-2.2-2.4l-5,4.7l3.5,3.7l4-3.8l2.6,2.7l-4,3.8l4,4.2l5-4.7l-2.2-2.4l3.1-2.9l4.8,5.1L34.9,46.9
		l-2.6-2.7l1.9-1.8l-10-10.6l-1.9,1.8l-2.6-2.7l14.1-13.4l4.8,5.1L35.6,25.5z"/>
	<path class="st3" d="M68.5,11.6c0.3,1.3,0.2,2.5-0.2,3.5c-0.4,1-1.2,2-2.3,2.8l4.9,5.8l2.8-0.6l0.8,3.7l-6.6,1.4L61,19.8l-2.5,0.5
		l1.2,5.8l2.7-0.6l0.8,3.7l-11.3,2.4l-0.8-3.7l3-0.6L51,13l-3,0.6L47.3,10l12.3-2.6C62,6.8,64,6.9,65.5,7.7
		C67.1,8.4,68.1,9.7,68.5,11.6z M62.7,13.1c-0.2-0.8-0.6-1.4-1.2-1.7s-1.4-0.3-2.3-0.2l-2.5,0.5l1.1,5l2.1-0.4
		C62.1,15.9,63.1,14.8,62.7,13.1z"/>
	<path class="st3" d="M90.3,12.6l-3.6,14.1l3.3,0.8L89,31.2L77,28.1l0.9-3.6l3.2,0.8l3.6-14.1l-3.2-0.8l0.9-3.6l12.1,3.1l-0.9,3.6
		L90.3,12.6z"/>
	<path class="st3" d="M119.1,27.9l1.1-1.3l2.8,2.4l-5,5.9l-2.8-2.4c1-2.8,0.5-5.1-1.5-6.8c-1-0.8-2.1-1.3-3.2-1.5
		c-1.2-0.1-2.4,0-3.5,0.6s-2.2,1.3-3.1,2.4c-0.9,1-1.4,2.1-1.7,3.2c-0.3,1.2-0.3,2.3,0,3.4s0.9,2.1,1.8,2.8c1.1,1,2.5,1.4,4,1.4
		c1.5-0.1,3-0.6,4.4-1.7l2,4.4c-4.6,2.8-9,2.4-13.3-1.3c-1.8-1.6-3.1-3.3-3.9-5.2c-0.8-1.9-1-3.8-0.6-5.7c0.4-1.9,1.3-3.8,2.8-5.5
		c1.4-1.6,3-2.8,4.9-3.4s3.8-0.8,5.8-0.4c2,0.4,3.8,1.3,5.5,2.8C117.4,23.8,118.7,25.7,119.1,27.9z"/>
</g>
</svg>
