<?xml version="1.0" encoding="utf-8"?>
<!-- Generator: Adobe Illustrator 25.2.2, SVG Export Plug-In . SVG Version: 6.00 Build 0)  -->
<svg version="1.2" baseProfile="tiny" id="Layer_1" xmlns="http://www.w3.org/2000/svg" xmlns:xlink="http://www.w3.org/1999/xlink"
	 x="0px" y="0px" viewBox="0 0 1030 356" overflow="visible" xml:space="preserve">
<g>
	<path fill="#FFCE99" d="M327.7,126.6c4.9,0,9.2-1.9,13-5.6s5.7-8.1,5.7-13.2c0-4.7-1.7-8.9-5.2-12.9s-8-5.9-13.5-5.9
		c-5.1,0-9.5,1.9-13.2,5.6s-5.6,8.1-5.6,13.2c0,5.5,1.9,10,5.7,13.5C318.5,124.8,322.9,126.6,327.7,126.6z"/>
	<path fill="#FFCE99" d="M265.4,246.2l15.4,13.9c1.2-1.8,2.3-3.6,3.3-5.4c2.3-4.1,4.3-7.8,5.9-11.1v-22.2c0-5.9,4.8-10.7,10.7-10.7
		h14.4c5.9,0,10.7,4.8,10.7,10.7V235c8.1-1.8,17.4-8.7,27.9-20.8c2.7-3.2,5.4-6.7,8.3-10.7c0,0.7,0,1.4,0,2.1
		c0,6.1,0.4,12.1,1.3,17.9c0.8,5.8,2.3,11,4.4,15.6c0.1,0.1,0.1,0.2,0.2,0.3c1.4-0.1,2.8-0.2,4.2-0.2h28.6c6,0,11.6,1.2,16.6,3.7
		c6.3-4.3,12.4-9.5,18.5-15.7c8.1-8.3,15.7-17.9,22.7-28.9s12.3-22.6,15.9-34.9c0.4-0.6,0.6-1.8,0.6-3.5c0-3-1-5.3-2.9-7
		s-4-2.5-6.3-2.5c-1.7,0-3.4,0.6-5.1,1.9c-1.7,1.3-3,3.2-3.8,5.7c-2.1,7.8-5.6,15.8-10.5,23.8s-10.2,15.3-15.9,21.9
		s-11.4,12-17,16.2s-10.1,6.3-13.5,6.3c-2.5,0-4.4-1.5-5.7-4.4c-1.3-3-1.9-6.9-1.9-11.7c0-7.2,1-15.6,3-25.2
		c2-9.6,4.6-18.8,7.8-27.6c3.2-8.8,6.6-16.2,10.2-22.4c3.6-6.1,7-9.2,10.2-9.2c1.3,0,1.9,1.3,1.9,3.8c0,3.2-0.5,6.8-1.4,11
		c-1,4.1-2.1,8-3.3,11.6c-1.3,3.6-2.4,6.6-3.3,9l-1.4,3.6c0,3,1.5,5.6,4.6,7.9s6.3,3.5,9.7,3.5c2.8,0,5.1-1.3,7.1-4
		c2-2.6,3.7-6,5.1-10s2.4-8.4,3-13.2s1-9.2,1-13.2c0-4.4-0.5-8.7-1.4-12.7s-2.5-7.6-4.6-10.6c-2.1-3.1-4.9-5.5-8.4-7.3
		s-7.8-2.7-12.9-2.7c-8.3,0-15.9,3-22.9,8.9s-13,13.8-18.1,23.5c-3.8,7.3-7,15.2-9.5,23.9c-0.8,2-2,4.4-3.5,7.4
		c-1.7,3.3-3.7,6.8-5.9,10.6c-2.2,3.8-4.6,7.6-7.1,11.4l-7.1,10.5c-2.2,3.2-4.3,5.7-6.2,7.6s-3.3,2.9-4.1,2.9
		c-0.8,0-1.3-1.4-1.3-4.1c0-5.3,0.5-10.6,1.6-16s2.3-10.8,3.7-16.2c1.4-5.4,2.6-10.8,3.7-16.2s1.6-10.6,1.6-15.7
		c0-3.2-1.3-5.4-4-6.8c-2.6-1.4-5.7-2.1-9-2.1c-4.7,0-9.3,1.1-14,3.3s-7.3,5.1-7.9,8.7l-2.3,13.5c-0.1,0.2-0.2,0.3-0.2,0.5
		C287.5,211.2,273.8,240.6,265.4,246.2z"/>
	<path fill="#FFCE99" d="M220.7,164.8c5.6,1.4,11.9,2.3,18.7,2.7c-0.8,3.8-1.9,8.6-3,14.3c-1.2,5.7-2.3,11.9-3.5,18.6
		c-0.8,4.7-1.6,9.6-2.2,14.5l29.8,26.9c0.2-2.6,0.9-6.1,2-10.5l4.6-17.5c1.7-6.3,3.2-12.9,4.6-19.7s2.1-13.1,2.1-19
		c0-7.4-1.6-13.5-4.8-18.4s-9-7.3-17.5-7.3h-5.9c-2.2,0-4.5-0.1-7-0.2c-2.4-0.1-4.7-0.3-6.8-0.6s-3.9-0.7-5.4-1.1
		c1.7-5.7,3.5-12.3,5.4-19.8s2.9-14.7,2.9-21.4c0-8.5-2-14.8-5.9-18.9s-8.5-6.2-13.8-6.2c-3.4,0-6.9,1-10.6,2.9s-7.1,4.7-10.3,8.3
		s-5.8,8-7.8,13.2s-3,11.1-3,17.6c0,12.1,4.8,22.2,14.4,30.5c1.9,1.6,4,3.1,6.2,4.5c-1.9,9.7-5.8,20.2-11.6,31.4s-13,21.7-21.4,31.4
		c-8.5,9.7-17.9,17.9-28.4,24.6c-10.5,6.7-21.2,10.1-32.2,10.3c-7.2,0-13.5-1.5-18.9-4.4c-5.4-3-9.9-6.8-13.5-11.6s-6.3-10.1-8.1-16
		c-1.8-5.9-2.7-12-2.7-18.1c0-10.8,2.2-20.1,6.5-27.9c4.3-7.8,9.8-14.4,16.5-19.7s14-9.2,22.1-11.7c8-2.5,15.8-3.8,23.2-3.8
		c0.4,0,1,0.1,1.6,0.2s1.8,0.2,3.5,0.2c3,0,5.1-0.8,6.5-2.5s2.1-3.6,2.1-5.7c0-2.1-1-4-3-5.7s-4.4-3.4-7.3-5.1l-8.9-5.4
		c-3.1-1.9-5.6-4.2-7.5-7c8.5-2.3,15.9-5.7,22.2-10s11.6-9.2,15.9-14.6c4.2-5.4,7.4-11.2,9.4-17.3s3-12.4,3-18.7
		c0-6.6-1.1-12.5-3.3-17.8s-5.2-9.7-9-13.3s-8.3-6.3-13.5-8.3s-10.7-2.9-16.7-2.9c-9.3,0-17.4,1.8-24.3,5.4s-12.5,8.4-17,14.3
		c-4.4,5.9-7.8,12.7-10,20.3S75.8,64.1,75.8,72c0,4,0.3,8.2,0.8,12.5S77.9,93,79,97c-10.8-0.6-19.8-2.6-27.1-6s-13.2-8-17.6-14
		c-4.4-5.9-7.6-12.9-9.5-20.9s-2.9-16.8-2.9-26.3c0-2.8-1.1-5-3.2-6.7s-4-2.5-5.7-2.5c-2.8,0-5,0.8-6.7,2.5S3.8,27,3.8,29.8
		C3.8,45,6,58,10.3,68.8C14.5,79.3,20.4,88.1,27.8,95s16.2,12,26.3,15.2s21.2,5,33,5.2c1.1,1.9,2.5,4,4.3,6.2s3.5,4.2,5.2,5.9
		c-10.2,1.3-19.2,4.4-27.1,9.5s-14.6,11.3-20,18.6S40,171,37.1,179.9c-2.9,8.9-4.3,17.9-4.3,27c0,8.7,1.4,17.1,4.1,25.2
		c2.8,8.1,6.9,15.4,12.5,21.7s12.7,11.5,21.3,15.4c8.6,3.9,18.8,6,30.6,6.2c15.4,0,30-3.5,43.6-10.6s25.8-16.1,36.3-27.1
		c10.6-11,19.4-23.3,26.3-36.8C214.1,188.5,218.4,176.5,220.7,164.8z M111.4,58.6c1-4.9,2.5-9.5,4.6-13.8s4.9-8,8.4-11
		s7.8-4.4,12.9-4.4c4.7,0,8.7,1.8,12.2,5.4s5.2,8.7,5.2,15.2c0,9.7-3.2,18.8-9.7,27.3s-16.9,14.3-31.3,17.5c-1.5-3.4-2.5-7.1-3-11.3
		c-0.5-4.1-0.8-8.1-0.8-11.9S110.5,63.5,111.4,58.6z M208.7,112.6c1.5-4.7,3.5-7,6-7c0.6,0,1.3,0.2,1.9,0.6c0.6,0.4,1,1.5,1,3.2
		c0,1.9-0.3,4.3-1,7.3s-1.4,6-2.2,9.2s-1.7,6.2-2.7,9s-1.6,5.2-2.1,7.1c-2.1-3.4-3.2-8.4-3.2-14.9
		C206.5,122.1,207.2,117.2,208.7,112.6z"/>
</g>
<g>
	<g>
		<path fill="#272838" d="M215.3,349.6V221.4h6.7l78.8,71.3v-71.3h14.4v128.2h-6.5l-79-71.3v71.3L215.3,349.6L215.3,349.6z"/>
	</g>
	<g>
		<path fill="#272838" d="M372.1,249.9h28.6c7.8,0,14.4,2.8,20,8.4c5.6,5.6,8.4,12.3,8.4,20V321c0,7.8-2.8,14.4-8.4,20.1
			c-5.6,5.6-12.3,8.5-20,8.5h-28.6c-7.8,0-14.4-2.8-20.1-8.4c-5.6-5.6-8.5-12.3-8.5-20.2v-42.7c0-7.8,2.8-14.4,8.5-20
			C357.6,252.7,364.3,249.9,372.1,249.9z M372.1,278.3V321c0,3.9,1.4,7.2,4.2,10.1c2.8,2.8,6.1,4.3,10,4.3c4,0,7.4-1.4,10.2-4.3
			c2.8-2.8,4.2-6.2,4.2-10.1v-42.7c0-3.9-1.4-7.2-4.2-10c-2.8-2.8-6.2-4.2-10.2-4.2c-3.9,0-7.2,1.4-10,4.2
			C373.5,271.1,372.1,274.4,372.1,278.3z"/>
	</g>
	<g>
		<path fill="#272838" d="M486.1,349.6h-28.6v-99.7h28.6v28.4c1.1-9.5,4.1-16.6,8.8-21.3c4.7-4.7,11.3-7.1,19.7-7.1h14.2v28.4h-28.6
			c-3.9,0-7.2,1.4-10,4.2c-2.8,2.8-4.2,6.2-4.2,10.2v56.9H486.1z"/>
	</g>
	<g>
		<path fill="#272838" d="M628.5,349.6h-28.4v-71.3c0-3.9-1.4-7.2-4.2-10s-6.2-4.2-10.2-4.2c-3.9,0-7.2,1.4-10,4.2
			c-2.8,2.8-4.2,6.1-4.2,10v71.3H543v-99.7h28.6v14.2c0.6-4.8,2.1-8.3,4.4-10.7c2.4-2.3,5.6-3.5,9.7-3.5h14.4
			c9.7,0,16.8,3.4,21.4,10.1c2.3-3.4,5.2-6,8.7-7.6c3.5-1.7,7.7-2.5,12.7-2.5h14.2c7.8,0,14.4,2.8,20.1,8.4c5.6,5.6,8.5,12.3,8.5,20
			v71.3h-28.6v-71.3c0-3.8-1.4-7.1-4.2-9.9s-6.1-4.3-10-4.3s-7.2,1.4-10.1,4.2c-2.9,2.8-4.3,6.1-4.3,10L628.5,349.6L628.5,349.6z"/>
	</g>
	<g>
		<path fill="#272838" d="M771.1,292.7v-14.4c0-3.9-1.4-7.2-4.2-10s-6.2-4.2-10.2-4.2h-14.2c-8.4,0-13.2,4.7-14.2,14.2H714
			c2.3-18.9,11.8-28.4,28.6-28.4h28.6c7.8,0,14.4,2.8,20,8.4c5.6,5.6,8.4,12.3,8.4,20v71.3h-28.4v-14.2c-1.1,9.5-5.9,14.2-14.4,14.2
			h-14.2c-7.8,0-14.4-2.8-20.1-8.4c-5.6-5.6-8.5-12.3-8.5-20.2c0-7.8,2.8-14.4,8.5-20c5.6-5.6,12.3-8.4,20.1-8.4L771.1,292.7
			L771.1,292.7z M771.1,306.9h-14.4c-3.9,0-7.2,1.4-10,4.2c-2.8,2.8-4.2,6.1-4.2,10s1.4,7.2,4.2,10.1c2.8,2.8,6.1,4.3,10,4.3
			c4,0,7.4-1.4,10.2-4.3c2.8-2.8,4.2-6.2,4.2-10.1V306.9z"/>
	</g>
	<g>
		<path fill="#272838" d="M828.1,349.6v-99.7h28.6v14.2c0.6-4.8,2.1-8.3,4.4-10.7c2.4-2.3,5.6-3.5,9.7-3.5h14.4
			c7.8,0,14.4,2.8,20,8.4s8.4,12.3,8.4,20v71.3h-28.4v-71.3c0-3.9-1.4-7.2-4.2-10s-6.2-4.2-10.2-4.2c-3.9,0-7.2,1.4-10,4.2
			c-2.8,2.8-4.2,6.1-4.2,10v71.3L828.1,349.6L828.1,349.6z"/>
	</g>
	<g>
		<path fill="#272838" d="M942.1,349.6v-99.7h28.6v14.2c0.6-4.8,2.1-8.3,4.4-10.7c2.4-2.3,5.6-3.5,9.7-3.5h14.4
			c7.8,0,14.4,2.8,20,8.4c5.6,5.6,8.4,12.3,8.4,20v71.3h-28.4v-71.3c0-3.9-1.4-7.2-4.2-10s-6.2-4.2-10.2-4.2c-3.9,0-7.2,1.4-10,4.2
			c-2.8,2.8-4.2,6.1-4.2,10v71.3L942.1,349.6L942.1,349.6z"/>
	</g>
</g>
</svg>
